<svg version="1.1" xmlns="http://www.w3.org/2000/svg" xmlns:xlink="http://www.w3.org/1999/xlink" width="178" height="63.55516" viewBox="0,0,178,63.55516"><g transform="translate(-151,-144.94484)"><g stroke-miterlimit="10"><path d="M153.5,157.32324c1.03469,-1.0814 2.08039,-2.18638 3.08052,-3.32323h166.8113c0.71737,1.4833 1.79033,2.76251 3.10818,3.72691v45.32124c-1.48384,0.66791 -2.77537,1.68719 -3.76861,2.95184h-166.32289c-0.8362,-0.83619 -1.81981,-1.52497 -2.9085,-2.02403z" fill="#8e0000" stroke="#8e6060" stroke-width="5"></path><text transform="translate(207.94213,193.65513) scale(1.0294,0.96456)" font-size="40" xml:space="preserve" fill="#550000" stroke="none" stroke-width="1" font-family="Pixel" font-weight="normal" text-anchor="start"><tspan x="0" dy="0">ACT</tspan></text><path d="M172.08038,165.836c2.02086,-2.93189 6.11245,-5.28691 9.47142,-5.52776c2.13605,-0.15316 3.38815,0.14092 4.6056,0.75138c0.9597,-0.26732 2.12389,-0.28936 3.03542,-0.32701c3.17467,-0.13113 8.18066,3.54531 9.39458,6.36489c1.29657,3.01155 1.05876,7.86536 -1.96844,9.88899c-0.3093,2.73597 -1.44069,6.06492 -2.25343,7.27948c-2.13084,3.18431 -2.81171,3.22656 -6.33762,3.90011c-0.54942,0.10495 -1.22976,-0.27502 -1.67695,0.06098c-0.61191,0.45977 -0.53954,1.4903 -1.09228,2.01972c-2.82619,2.70692 -3.85343,2.36155 -7.53886,3.1c-1.59293,-0.60207 -3.37808,-0.83773 -4.77877,-1.80621c-0.78079,-0.53986 -0.55486,-2.06368 -1.41103,-2.47361c-0.74899,-0.35861 -1.5756,0.6447 -2.40601,0.64604c-1.48909,0.0024 -3.09318,0.03715 -4.42192,-0.63505c-7.12662,-3.60529 -3.70453,-9.17175 0.41455,-13.0367c-0.09559,-0.70489 -0.13932,-1.42324 -0.20509,-2.04381c-0.32742,-3.08966 1.85591,-6.51399 4.49071,-7.91821c0.79664,-0.42457 1.7426,-0.31522 2.67811,-0.24323z" fill="#8b903e" stroke="none" stroke-width="0.5"></path><path d="M183.80142,174.34327c0.01908,0.13987 0.02927,0.2893 0.02927,0.4489c0,2.5 -2.5,2.5 -2.5,2.5l-2.65013,-3.06215c0.6528,-2.80283 1.67511,-5.3951 2.3663,-8.18198c0,0 0.60634,-2.42535 3.03169,-1.81902c2.42535,0.60634 1.81902,3.0317 1.81902,3.0317c-0.60894,2.41864 -1.46737,4.69016 -2.09615,7.08254z" fill="#8f3d3d" stroke="none" stroke-width="0.5"></path><path d="M175.40425,182.71581c0,-1.38071 1.11929,-2.5 2.5,-2.5c1.38071,0 2.5,1.11929 2.5,2.5c0,1.38071 -1.11929,2.5 -2.5,2.5c-1.38071,0 -2.5,-1.11929 -2.5,-2.5z" fill="#8f3d3d" stroke="none" stroke-width="0.5"></path></g></g></svg>