<svg version="1.1" xmlns="http://www.w3.org/2000/svg" xmlns:xlink="http://www.w3.org/1999/xlink" width="112.53724" height="132.67798" viewBox="0,0,112.53724,132.67798"><g transform="translate(-190.63819,-129.64895)"><g stroke-miterlimit="10"><path d="M207.5,226.5v-93h65v93z" fill="#ffffff" stroke="#e2e2e2" stroke-width="5" stroke-linecap="butt"></path><path d="M272.66514,227.01738l-34.15398,31.8253l-31.8253,-32.21341" fill="none" stroke="#e2e2e2" stroke-width="5" stroke-linecap="round"></path><path d="M237.01783,253.29582c-3.01477,-1.67761 -6.45615,-4.31126 -8.81293,-6.65745c-1.89285,-1.88435 -3.10176,-4.2924 -5.25079,-6.04423c-2.84607,-2.32003 -6.06561,-4.29145 -8.12422,-7.29183l-1.83946,-0.91973c-0.84561,-0.40086 -1.43041,-1.26228 -1.43041,-2.26029c0,-1.16178 0.79247,-2.13847 1.86634,-2.41899l2.66365,-0.76104l0.02399,0.08396c0.16132,-0.06443 0.32533,-0.12285 0.49244,-0.17434c3.1318,-0.96495 7.95871,2.10834 11.21477,2.32916c2.65882,0.18032 5.17011,-0.20354 7.79594,-0.38811c5.41694,-0.38077 10.8856,0.00525 16.30076,-0.38811c2.80197,-0.20354 5.49201,-0.5513 8.3276,-0.3944c1.3474,0.07455 3.01236,-0.51159 4.03112,0.37337c5.18148,4.501 1.75647,5.54585 -1.22385,8.17004c-3.16067,1.58726 -5.85014,3.33219 -8.71965,5.29942c-1.23431,0.84619 -1.65187,2.49739 -2.53858,3.70292c-2.3749,3.22881 -5.94976,5.313 -8.96614,7.83293l-2.61255,1.17687c0,0 -2.23812,0.89525 -3.19803,-1.27013z" fill="#ffffff" stroke="none" stroke-width="0.5" stroke-linecap="butt"></path><path d="M201.93711,231.33923v-97.17071h9.94305v97.17071z" fill="#4a1e1e" stroke="none" stroke-width="0" stroke-linecap="butt"></path><path d="M256.17192,179.81615v-32.08893h25.76154v32.08893z" fill="#4a1e1e" stroke="none" stroke-width="0" stroke-linecap="butt"></path><path d="M238.99756,201.05812v-45.19568h9.49109v45.19568z" fill="#4a1e1e" stroke="none" stroke-width="0" stroke-linecap="butt"></path><path d="M228.60256,210.54922v-60.11025h3.1637v60.11025z" fill="#4a1e1e" stroke="none" stroke-width="0" stroke-linecap="butt"></path><path d="M232.67017,162.6418v-32.99284h34.34872v32.99284z" fill="#204e2a" stroke="none" stroke-width="0" stroke-linecap="butt"></path><path d="M237.18974,223.65596v-16.7224h13.5587v16.7224z" fill="#204e2a" stroke="none" stroke-width="0" stroke-linecap="butt"></path><path d="M215.04385,212.809v-74.12091h10.84696v74.12091z" fill="#204e2a" stroke="none" stroke-width="0" stroke-linecap="butt"></path><path d="M194.7058,206.02965v-5.42348h79.99635v5.42348z" fill="#204e2a" stroke="none" stroke-width="0" stroke-linecap="butt"></path><path d="M193.34993,172.13289v-7.23131h91.74723v7.23131z" fill="#4f2020" stroke="none" stroke-width="0" stroke-linecap="butt"></path><path d="M241.7093,242.63815v-36.15654h3.61565v36.15654z" fill="#4f2020" stroke="none" stroke-width="0" stroke-linecap="butt"></path><path d="M212.78407,241.73423v-41.58002h14.91457v41.58002z" fill="#4f2020" stroke="none" stroke-width="0" stroke-linecap="butt"></path><path d="M248.0367,251.67728v-48.35938h9.49109v48.35938z" fill="#4f2020" stroke="none" stroke-width="0" stroke-linecap="butt"></path><path d="M229.05451,241.73423v-55.13873h8.13522v55.13873z" fill="#4f2020" stroke="none" stroke-width="0" stroke-linecap="butt"></path><path d="M262.49932,226.3677v-61.46612h1.35587v61.46612z" fill="#4f2020" stroke="none" stroke-width="0" stroke-linecap="butt"></path><path d="M241.7093,190.66312v-50.61916h4.06761v50.61916z" fill="#4f2020" stroke="none" stroke-width="0" stroke-linecap="butt"></path><path d="M237.18974,194.27877v-54.23481h9.03914v54.23481z" fill="#4f2020" stroke="none" stroke-width="0" stroke-linecap="butt"></path><path d="M222.27516,186.14355v-44.29176h10.84696v44.29176z" fill="#4f2020" stroke="none" stroke-width="0" stroke-linecap="butt"></path><path d="M253.91214,195.18268v-50.1672h10.84696v50.1672z" fill="#204f2f" stroke="none" stroke-width="0" stroke-linecap="butt"></path><path d="M210.07233,233.59901v-98.52658h9.03914v98.52658z" fill="#414f20" stroke="none" stroke-width="0" stroke-linecap="butt"></path><path d="M247.58474,221.39618v-58.30242h11.29892v58.30242z" fill="#414f20" stroke="none" stroke-width="0" stroke-linecap="butt"></path><path d="M266.11497,217.78052v-53.78286h4.97152v53.78286z" fill="#414f20" stroke="none" stroke-width="0" stroke-linecap="butt"></path><path d="M229.95843,229.07944v-67.79352h1.35587v67.79352z" fill="#414f20" stroke="none" stroke-width="0" stroke-linecap="butt"></path><path d="M230.86234,244.44597v-111.18137h10.39501v111.18137z" fill="#414f20" stroke="none" stroke-width="0" stroke-linecap="butt"></path><path d="M190.63819,171.68093v-23.0498h84.06396v23.0498z" fill="#414f20" stroke="none" stroke-width="0" stroke-linecap="butt"></path><path d="M201.93711,204.22182v-6.77935h69.14939v6.77935z" fill="#414f20" stroke="none" stroke-width="0" stroke-linecap="butt"></path><path d="M194.25384,185.69159v-0.45196h62.37004v0.45196z" fill="#4b3580" stroke="none" stroke-width="0" stroke-linecap="butt"></path><path d="M225.89082,161.28593v-1.80783h73.66895v1.80783z" fill="#4b3580" stroke="none" stroke-width="0" stroke-linecap="butt"></path><path d="M207.81255,199.2503v-4.06761h95.36288v4.06761z" fill="#4b3580" stroke="none" stroke-width="0" stroke-linecap="butt"></path><path d="M225.43886,235.40684v-93.55505h3.1637v93.55505z" fill="#4b3580" stroke="none" stroke-width="0" stroke-linecap="butt"></path><path d="M245.32496,234.05097v-100.78636h23.50175v100.78636z" fill="#4b3580" stroke="none" stroke-width="0" stroke-linecap="butt"></path><path d="M195.60971,184.78768v-13.5587h97.62266v13.5587z" fill="#4b3580" stroke="none" stroke-width="0" stroke-linecap="butt"></path><path d="M220.91929,252.12924v-10.84696h30.2811v10.84696z" fill="#4b3580" stroke="none" stroke-width="0" stroke-linecap="butt"></path><path d="M231.3143,261.16837v-26.66545h35.70459v26.66545z" fill="#4b3580" stroke="none" stroke-width="0" stroke-linecap="butt"></path><path d="M259.78758,253.48511v-56.94655h16.7224v56.94655z" fill="#4b3580" stroke="none" stroke-width="0" stroke-linecap="butt"></path><path d="M206.00472,136.4283v-6.32739h73.217v6.32739z" fill="#4b3580" stroke="none" stroke-width="0" stroke-linecap="butt"></path></g></g></svg>