<svg version="1.1" xmlns="http://www.w3.org/2000/svg" xmlns:xlink="http://www.w3.org/1999/xlink" width="933.06893" height="720.08776" viewBox="0,0,933.06893,720.08776"><g transform="translate(244.74106,180.88041)"><g stroke-miterlimit="10"><path d="M688.22819,448.95329c-2.58617,32.75815 -48.60251,23.52154 -72.45852,19.76345c-0.07702,0.18094 -0.15618,0.36176 -0.2375,0.54243c-5.9552,13.23021 -20.18316,18.32171 -33.05842,12.53558c-7.50525,-3.37285 -15.00057,-6.77045 -22.48709,-10.18997c-7.87512,2.98285 -17.97539,1.68693 -26.61634,0.3107c0.09059,2.3679 0.17782,4.73591 0.26079,7.10409c0.49426,14.10702 -9.42697,25.39707 -23.98082,25.97922c-14.55366,0.58215 -25.34535,-9.87939 -25.97922,-23.98082c-0.19968,-4.44207 -0.40626,-8.89306 -0.61406,-13.34991c-3.08263,-0.24838 -6.16458,-0.52077 -9.24611,-0.80782c-4.52162,-0.30587 -9.03428,-0.61831 -13.53074,-0.94716c-34.70629,-2.53825 -61.24037,-5.13482 -93.3744,-5.77403c-1.85503,0.31288 -3.70909,0.63062 -5.56168,0.95577c-2.42362,0.42537 -4.79798,0.85637 -7.13122,1.28299c-3.28935,1.30416 -4.41422,2.69189 -10.62297,2.25619c-0.42214,-0.02962 -0.84026,-0.06866 -1.25421,-0.11688c-12.1565,2.09088 -23.50231,3.52405 -35.38467,2.64493c-5.0544,-0.37395 -10.20588,-1.16628 -15.55814,-2.50435c-3.71751,-0.92938 -9.02653,-5.81898 -10.03975,-9.56791l-0.65338,-2.41752c-2.40439,0.20832 -4.45173,0.62515 -5.78424,1.52042c-8.80412,5.91516 -12.75597,17.02053 -20.13731,24.63744c-2.13126,2.19927 -6.03835,5.65488 -8.74542,6.21648c-3.50798,0.72774 -7.02119,1.43274 -10.54596,2.07427c-2.86783,0.52196 -5.40795,-2.17867 -8.08843,-3.32406c-8.69497,-3.71542 -8.67236,-5.75094 -14.85521,-14.25891c-0.12284,-0.16904 -0.1754,-0.38955 -0.18762,-0.59816c-0.12105,-2.06788 -0.12715,-4.14096 -0.21096,-6.21069c-0.03034,-0.74938 0.61837,-2.26052 -0.13148,-2.24613c-9.31998,0.17885 -18.89678,0.10725 -27.8263,2.78263c-3.13476,0.93921 -4.18087,5.03803 -6.37621,7.46483c-7.11637,7.86665 -17.03458,17.60244 -28.24346,16.78228c-5.62871,-0.41186 -11.84,-3.81182 -15.95106,-7.83425c-9.54466,-9.33889 -9.43725,-15.55431 -20.53937,-14.61876c-2.29165,0.19311 -4.46912,1.08799 -6.69738,1.65708c-43.0276,10.98915 -86.03269,22.06647 -129.06999,33.0176c-4.669,1.18806 -9.63708,0.06669 -14.28999,0.91155c-0.12538,0.02277 -1.94882,2.58715 -2.43016,2.91492c-2.55094,1.7371 -6.79696,5.64151 -9.84857,5.65177c-2.89256,0.00972 -12.03967,0.57389 -14.93128,-1.09931c-0.49996,-0.2893 -5.06347,-3.55854 -5.09832,-3.44639c-3.54366,11.40194 -4.15306,22.35312 -13.8805,29.74424c-0.62584,0.47553 -4.56906,4.13817 -6.47014,4.32244c-4.14349,0.40161 -8.31702,0.49346 -12.47987,0.47052c-2.25943,-0.01245 -5.59296,-2.49623 -7.04594,-3.24254c-2.13944,-1.09889 -4.48368,-1.79345 -6.55467,-3.01645c-1.64463,-0.97122 -3.66811,-5.95816 -4.03401,-6.6538c-6.37361,-12.11725 -0.80221,-13.26931 -1.43211,-24.30881c-0.03605,-0.63173 -1.26611,0.06259 -1.89804,0.03013c-1.30685,-0.06713 -2.63757,-0.03139 -3.91196,-0.32858c-8.29631,-1.93471 -11.63931,-3.72427 -17.34653,-9.88219c-2.78968,-3.00999 -3.94098,-9.6259 -4.12292,-13.90943c-0.694,-16.33964 -0.81963,-32.7034 -1.72045,-49.03294c-0.2342,-4.24544 -9.81744,-10.45343 -12.17212,-13.0141c-2.14503,-2.33267 -2.32972,-7.90643 -2.79508,-11.00565c-0.41881,-2.78918 2.73636,-9.72845 2.23746,-11.13859c-0.90274,-2.55162 -2.21004,-4.97031 -2.87367,-7.59429c-0.98555,-3.8968 -0.91335,-9.03271 0.07041,-12.88451c1.67458,-6.55662 3.34838,-13.11344 5.02194,-19.67032c-3.69866,-2.20983 -6.65232,-5.05911 -7.66705,-8.2772c-1.13825,-3.60981 -2.00977,-7.303 -2.79508,-11.00565c-1.3805,-6.50882 7.15489,-21.76427 8.97646,-27.51309c2.62617,-8.28811 4.86156,-16.69398 7.188,-25.07235c-0.10695,-0.25163 -0.21358,-0.50349 -0.31986,-0.75555c-2.54603,3.84284 -11.05564,11.18474 -16.09399,12.2044c-1.59089,0.32197 -3.22665,-0.54604 -4.84756,-0.46096c-1.62091,0.08508 -3.15682,1.11955 -4.77267,0.9659c-1.58713,-0.15092 -2.91672,-1.29456 -4.41496,-1.83957c-25.93336,-9.4337 -19.47217,-44.53927 -12.42791,-65.70277c-0.10489,-0.9299 -0.15877,-1.87524 -0.15877,-2.83317c0,-1.65065 0.15997,-3.26394 0.46526,-4.82521c1.46015,-14.33404 3.34241,-25.58878 6.02771,-35.74253c-2.60425,-7.81809 -2.85094,-16.64329 -0.62082,-23.72151c3.94573,-12.52341 8.96419,-24.84226 14.70286,-36.92552c-2.12547,-1.35493 -3.99605,-3.15425 -5.47752,-5.44035c-8.85983,6.23745 -20.55425,13.93249 -29.62971,15.33948c-2.98614,0.46295 -6.04216,1.61609 -9.00669,1.03048c-1.87674,-0.37073 -3.50942,-1.52747 -5.29755,-2.20731c-2.60435,-0.99017 -5.34657,-2.16145 -7.20511,-4.23724c-3.33904,-3.72934 -5.78493,-6.1887 -7.86566,-10.70856c-1.79302,-3.89487 -2.63175,-8.23926 -2.79508,-12.57788c-0.3707,-9.84693 11.96396,-39.37105 12.99772,-41.93421c6.36083,-15.77139 13.89993,-31.04165 20.90532,-46.5375c2.2701,-5.02144 3.41988,-4.96474 6.92854,-14.73034c0.4181,-1.16368 -0.49341,-2.48335 -0.27071,-3.69964c0.46041,-2.51457 1.89232,-4.75789 3.05754,-7.03325c3.34957,-6.54082 7.64065,-12.63527 10.3429,-19.46899c0.30619,-0.77432 -1.72861,-0.07682 -2.44835,-0.4955c-1.15999,-0.67478 -1.91776,-1.89293 -3.00642,-2.6776c-2.54627,-1.83525 -6.52955,-4.41748 -8.17392,-7.27989c-3.2406,-5.64104 -3.07316,-12.78109 -1.94612,-19.03232c1.8195,-10.09199 21.24833,-32.10614 24.13031,-35.79502c6.96888,-8.92003 13.9868,-17.80266 20.84859,-26.80533c9.84726,-12.9196 17.78615,-27.55051 29.55171,-38.75124c3.31876,-3.15944 10.13951,-7.61407 14.76139,-8.56369c1.07095,-0.22004 2.16485,0.41315 3.25771,0.38139c1.25639,-0.03652 2.47275,-0.69022 3.7252,-0.58434c1.81878,0.15375 3.57914,1.93527 5.30731,1.34789c11.34354,-3.85549 15.89351,-10.11482 26.96085,-12.25815c7.16639,-1.38786 16.03282,4.33427 21.52697,11.74019c5.02959,-1.26794 10.07447,-0.89632 14.60816,0.7388c1.11825,-1.27963 2.09533,-2.39139 2.89852,-3.29675c4.98304,-5.61682 13.98786,-10.57243 21.7851,-9.03285c4.89604,0.96673 9.70908,3.24541 13.48039,6.51388c2.8599,2.47858 5.24153,5.63104 6.9464,9.06349c8.91137,-1.24391 17.59814,2.47397 23.07681,9.06522c1.1572,-1.1483 2.32165,-2.28259 3.49343,-3.40064c0.94676,-0.90334 1.91625,-1.81266 3.03835,-2.48592c6.89791,-4.13875 13.76143,-6.11229 20.41669,-4.56782c1.69981,-1.64492 3.39233,-3.29643 5.07349,-4.95827c10.0388,-9.92346 25.04842,-10.30692 35.35534,0c10.61332,10.61332 8.48581,22.9494 1.1417,34.78831c1.22205,0.33841 2.43973,0.69419 3.65252,1.06941c10.74884,3.32552 21.46134,6.76921 32.14272,10.30889c10.38054,1.34009 20.80235,2.86247 31.25881,3.62769c18.8363,1.37847 37.72206,1.96789 56.5817,2.97798c13.6911,0.73327 26.85568,2.60434 40.51499,4.11183c11.78473,-1.51195 23.51292,-3.45969 35.24718,-5.32742c17.7479,-2.82492 49.84081,-14.4138 60.37378,5.71603c7.9794,0.10444 16.50278,0.62077 23.93058,3.52051c45.43593,0.8142 91.03267,2.8565 135.06105,12.00028c3.15104,0.65441 6.30143,1.31195 9.45123,1.97234l9.35161,-19.74228l2.02523,-3.363l0.22932,-0.24594c-0.25834,-1.03527 -0.5169,-2.07048 -0.77569,-3.10564c-0.57528,-2.1047 -0.88241,-4.32012 -0.88241,-6.60728c0,-2.96179 0.51505,-5.80329 1.46046,-8.43982c0.83476,-3.01215 2.14083,-5.87456 4.40197,-8.51873c7.78814,-9.1074 20.76569,-10.22493 30.50788,-5.41619l5.03682,-2.51841l0.78841,-0.61161l1.66333,-0.43442l2.15788,-0.82205l2.47774,-0.38867l2.42664,-0.63378l2.3066,-0.10869l1.69835,-0.26641l0.96712,0.24562l27.47783,1.4462l3.55607,0.54564l0.11335,0.00575l0.10427,0.02764l0.10663,0.01636l0.1062,0.04005l3.4776,0.92177l24.02402,9.00901l3.52038,1.73733l0.11995,0.09442l0.1419,0.05629l3.27063,2.17126l15.49027,12.67386l1.6756,0.63766l2.01447,2.86582l0.11209,0.11209l0.41664,0.64009l3.98673,5.67161l0.14196,0.67137l0.37434,0.57511l1.19138,6.82948l0.158,0.74723v0.15851l0.602,3.45088l-0.73394,1.63572l-0.92836,9.28357l0.2145,0.51927l-0.51881,2.52379l-0.1369,1.369l-0.77737,3.848l-0.30182,0.69877l-0.55152,2.68291l-1.60614,2.31255l-1.11644,2.58479l-1.98765,1.88452l-0.4342,0.62517l-2.85802,2.6913l-1.09051,0.83886l-1.86977,1.77275l-0.55427,0.09189l-16.00497,12.31152l-1.84863,1.14879l-0.20781,0.17801l-0.64941,0.3547l-0.6285,0.39057l-0.25726,0.09322l-0.59843,0.32685c0.78551,3.85892 0.77975,7.93916 0.01553,11.7603c-2.15049,10.75247 -10.98509,15.78471 -21.03603,18.0235c0.7485,9.58716 0.98878,18.9701 0.36658,27.81093c-1.25019,17.76394 -2.33703,35.7244 -3.80743,53.52095c0.97746,6.52705 1.24197,12.55088 -0.00336,16.48031c-0.52334,1.65131 -1.18407,3.19997 -1.96555,4.64085c-1.79777,17.41523 -3.8635,34.81198 -4.66751,52.29515c-0.97132,21.12119 0.0354,42.28706 0,63.43054c-0.02056,12.27689 -1.90964,24.48092 -3.09699,36.70027c-1.11052,11.42864 -8.68153,20.15006 -19.3143,22.324c0.80478,18.53048 1.3711,37.07503 2.00393,55.61552c0.68124,0.00235 1.35607,0.03195 2.02344,0.08777c1.80169,0.01564 3.6129,-0.03885 5.33107,0.44893c15.10144,4.28721 20.84911,21.37168 15.98341,33.73597c-0.62171,1.57982 -1.49105,3.04354 -2.5064,4.42061c-1.49317,2.27651 -3.34793,4.29458 -5.48263,5.97257c-2.85541,2.74816 -7.58098,6.4988 -12.9692,10.52204c0.41868,7.27573 0.89439,14.54804 1.44562,21.81586c0.29608,3.90368 1.45389,9.55518 2.69633,16.0473c0.49083,0.04225 0.98161,0.08497 1.47235,0.12825c11.87355,1.04731 38.24331,3.71869 50.24742,12.84182c3.10332,2.35852 6.27104,4.8625 8.55899,8.00396c15.82008,3.54228 28.45802,11.39399 27.10297,28.55796zM622.07929,-100.31297l1.32951,-1.0227l-12.63288,-4.73733c1.61742,2.82392 2.89589,5.86177 3.82342,8.92462z" fill="#000000" stroke="none" stroke-width="0.5"/><path d="M38.03491,272.81156v-91.19393h405.40541v91.19393z" fill="none" stroke="#e2e2e2" stroke-width="5"/></g></g></svg>