<svg version="1.1" xmlns="http://www.w3.org/2000/svg" xmlns:xlink="http://www.w3.org/1999/xlink" width="183" height="198" viewBox="0,0,183,198"><g transform="translate(-85.40625,-45.8125)"><g stroke="none" stroke-width="0" stroke-miterlimit="10"><path d="M145.40625,219.8125v-105h109.75238v105z" fill="#323103"></path><path d="M146.33958,197.8125v-108h68.27619v108z" fill="#031b33"></path><path d="M205.7872,218.8125v-129h8.29524v129z" fill="#6d0000"></path><path d="M174.52054,157.8125v-35h20.41905v35z" fill="#6d0000"></path><path d="M218.54911,140.8125v-30h31.26667v30z" fill="#6d0000"></path><path d="M196.21577,219.8125v-41h35.73333v41z" fill="#0d6e07"></path><path d="M194.93958,168.8125v-28h20.41905v28z" fill="#0d6e07"></path><path d="M231.31101,154.8125v-37h17.22857v37z" fill="#23076e"></path><path d="M203.23482,135.8125v-63h9.57143v63z" fill="#23076e"></path><path d="M177.07292,187.8125v-25h55.51429v25z" fill="#23076e"></path><path d="M214.72054,135.8125v-41h26.8v41z" fill="#6e6c07"></path><path d="M182.17768,181.8125v-43h31.90476v43z" fill="#6e6c07"></path><path d="M200.04435,217.8125v-142h21.05714v142z" fill="#323103"></path><path d="M182.17768,171.8125v-70h19.78095v70z" fill="#323103"></path><path d="M132.55863,145.8125v-87h67v87z" fill="#323103"></path><path d="M191.11101,218.8125v-49h37.00952v49z" fill="#323103"></path><path d="M178.9872,85.8125v-2h81.0381v2z" fill="#323103"></path><path d="M181.93958,223.8125v-138h10.35966v138z" fill="#031b33"></path><path d="M85.40625,132.8125v-7h134v7z" fill="#031b33"></path><path d="M182.40625,243.8125v-198h1v198z" fill="#6f0069"></path><path d="M175.40625,187.8125v-99h17v99z" fill="#002d70"></path><path d="M234.40625,230.8125v-132h13v132z" fill="#6f0069"></path><path d="M123.40625,133.8125v-47h38v47z" fill="#6f0069"></path><path d="M115.40625,172.8125v-8h153v8z" fill="#6f0069"></path><path d="M140.69196,127.8125v-21h73.38095v21z" fill="#323103"></path></g></g></svg>