<svg version="1.1" xmlns="http://www.w3.org/2000/svg" xmlns:xlink="http://www.w3.org/1999/xlink" width="160.77" height="198" viewBox="0,0,160.77,198"><g transform="translate(-134.1321,-45.8125)"><g stroke="none" stroke-width="0" stroke-miterlimit="10"><path d="M160.19463,196.39756v-105h75.86234v105z" fill="#323103"></path><path d="M183.31054,191.03449v-108h68.27619v108z" fill="#031b33"></path><path d="M205.7872,218.8125v-129h8.29524v129z" fill="#6d0000"></path><path d="M174.52054,157.8125v-35h20.41905v35z" fill="#6d0000"></path><path d="M134.1321,190.72328v-30h31.26667v30z" fill="#6d0000"></path><path d="M192.51867,155.72951v-41h35.73333v41z" fill="#0d6e07"></path><path d="M194.93958,168.8125v-28h20.41905v28z" fill="#0d6e07"></path><path d="M206.66371,135.09466v-37h17.22857v37z" fill="#23076e"></path><path d="M203.23482,135.8125v-63h9.57143v63z" fill="#23076e"></path><path d="M154.27416,153.92246v-25h55.51429v25z" fill="#23076e"></path><path d="M214.72054,135.8125v-41h26.8v41z" fill="#6e6c07"></path><path d="M216.6839,135.59881v-43h31.90476v43z" fill="#6e6c07"></path><path d="M200.04435,217.8125v-142h21.05714v142z" fill="#323103"></path><path d="M182.17768,171.8125v-70h19.78095v70z" fill="#323103"></path><path d="M186.7827,169.22743v-87h67v87z" fill="#323103"></path><path d="M184.333,161.50752v-49h37.00952v49z" fill="#323103"></path><path d="M178.9872,85.8125v-2h81.0381v2z" fill="#323103"></path><path d="M181.93958,223.8125v-138h10.35966v138z" fill="#031b33"></path><path d="M136.5494,94.60918v-7h134v7z" fill="#031b33"></path><path d="M182.40625,243.8125v-198h1v198z" fill="#6f0069"></path><path d="M212.99339,198.90379v-99h17v99z" fill="#002d70"></path><path d="M209.75895,211.09466v-132h13v132z" fill="#6f0069"></path><path d="M162.84194,146.13615v-47h38v47z" fill="#6f0069"></path><path d="M141.9021,112.42661v-8h153v8z" fill="#6f0069"></path><path d="M156.71271,124.1154v-21h73.38095v21z" fill="#323103"></path></g></g></svg>