<svg version="1.1" xmlns="http://www.w3.org/2000/svg" xmlns:xlink="http://www.w3.org/1999/xlink" width="178" height="61.88095" viewBox="0,0,178,61.88095"><g transform="translate(-151,-146.61905)"><g stroke-miterlimit="10"><path d="M153.5,157.32324c1.03469,-1.0814 2.08039,-2.18638 3.08052,-3.32323h166.8113c0.71737,1.4833 1.79033,2.76251 3.10818,3.72691v45.32124c-1.48384,0.66791 -2.77537,1.68719 -3.76861,2.95184h-166.32289c-0.8362,-0.83619 -1.81981,-1.52497 -2.9085,-2.02403z" fill="#8e0000" stroke="#8e6060" stroke-width="5"/><text transform="translate(207.38407,195.32933) scale(1.0294,0.96456)" font-size="40" xml:space="preserve" fill="#550000" stroke="none" stroke-width="1" font-family="Pixel" font-weight="normal" text-anchor="start"><tspan x="0" dy="0">ITEM</tspan></text><path d="M193.97715,187.46907c-0.42676,0.92031 -1.33087,1.53139 -1.9963,2.29709c-1.78402,2.3833 -3.45912,6.09765 -6.38381,7.30735c-1.03495,0.42807 -2.23942,0.07631 -3.35593,0.16437c-4.5493,0.3588 -10.80478,1.02399 -14.8465,-1.8071c-2.25922,-1.58251 -2.30298,-3.27094 -3.4195,-5.42771c-0.77933,-1.50542 -3.05608,-4.51318 -3.03935,-6.18854c0.0129,-1.29187 0.95282,-2.41077 1.58997,-3.53466c1.61121,-2.84207 3.84423,-5.22092 6.15493,-7.50761c-0.80031,-0.48318 -1.55663,-1.11403 -2.27112,-1.94493c-3.09356,-3.59756 -4.61091,-5.18469 1.47828,-7.56021c2.26899,-0.88518 4.86564,0.28137 7.30119,0.28212c4.59023,0.00142 9.2078,-2.19743 13.7445,-1.72708c4.99705,0.51808 6.63241,0.3838 4.06721,6.64702c-0.4297,1.04915 -1.74786,1.44457 -2.63219,2.154c-0.81615,0.65474 -1.56009,1.45059 -2.32319,2.21043c3.30388,4.4161 8.59692,8.88817 5.93181,14.63546zM186.61228,167.24381c-0.04471,0.00494 -0.0894,0.00972 -0.134,0.01437c0.01932,0.01672 0.03925,0.03437 0.05969,0.05293c0.02471,-0.02254 0.04949,-0.04498 0.07432,-0.0673z" fill="#803029" stroke="none" stroke-width="0.5"/><path d="M183.8714,181.60539c0,1.25 -1.25,1.25 -1.25,1.25h-0.69138c-0.71891,-0.0007 -1.44241,0.01803 -2.16797,0.05019c0.03207,1.67474 0.13389,3.33464 0.13389,5.09512v1.03708c0,0 0,1.25 -1.25,1.25c-1.25,0 -1.25,-1.25 -1.25,-1.25v-1.03708c0,-1.6977 -0.08937,-3.31527 -0.12413,-4.94126c-1.24254,0.09408 -2.48258,0.20744 -3.70745,0.31017c0,0 -1.24568,0.10381 -1.34949,-1.14188c-0.10381,-1.24568 1.14188,-1.34949 1.14188,-1.34949c1.29695,-0.10742 2.60916,-0.22564 3.9235,-0.32245c0.00628,-0.17878 0.01406,-0.35819 0.0235,-0.53833l-0.14942,-0.04449c-1.66421,-1.38684 -2.82794,-2.59117 -3.91484,-4.48841c0,0 -0.62017,-1.0853 0.46513,-1.70548c1.0853,-0.62017 1.70548,0.46513 1.70548,0.46513c0.77434,1.35889 1.55282,2.23761 2.60982,3.17795l0.00586,-0.01331c2.09961,-1.19902 4.31959,-2.14934 6.28893,-3.56163c0,0 1.01717,-0.72655 1.74371,0.29062c0.72655,1.01717 -0.29062,1.74371 -0.29062,1.74371c-1.86022,1.32398 -3.91318,2.26869 -5.90454,3.36341c-0.03469,0.39122 -0.05982,0.7776 -0.07728,1.16042c0.71725,-0.03094 1.43265,-0.04936 2.14404,-0.05h0.69138c0,0 1.25,0 1.25,1.25z" fill="#421915" stroke="none" stroke-width="0.5"/></g></g></svg>