<svg version="1.1" xmlns="http://www.w3.org/2000/svg" xmlns:xlink="http://www.w3.org/1999/xlink" width="178" height="59.41622" viewBox="0,0,178,59.41622"><g transform="translate(-151,-149.08378)"><g stroke-miterlimit="10"><path d="M153.5,157.32324c1.03469,-1.0814 2.08039,-2.18638 3.08052,-3.32323h166.8113c0.71737,1.4833 1.79033,2.76251 3.10818,3.72691v45.32124c-1.48384,0.66791 -2.77537,1.68719 -3.76861,2.95184h-166.32289c-0.8362,-0.83619 -1.81981,-1.52497 -2.9085,-2.02403z" fill="#8e0000" stroke="#8e6060" stroke-width="5"/><text transform="translate(201.24535,193.09706) scale(0.92435,0.87155)" font-size="40" xml:space="preserve" fill="#550000" stroke="none" stroke-width="1" font-family="Pixel" font-weight="normal" text-anchor="start"><tspan x="0" dy="0">FIGHT</tspan></text><path d="M177.57383,180.39949l-2.84578,-2.51098l13.49654,-15.29608l2.84578,2.51098z" fill="#b15858" stroke="none" stroke-width="0"/><path d="M169.23034,176.85237l2.11629,-2.39475l10.44981,9.23471l-2.11629,2.39475z" fill="#b15858" stroke="none" stroke-width="0"/><path d="M166.36529,187.2202l7.74252,-7.88803l2.31694,1.58272l-7.74252,7.88803z" fill="#b15858" stroke="none" stroke-width="0"/><path d="M171.75082,188.33715v-0.9488h0.9488v0.9488z" fill="#b15858" stroke="none" stroke-width="0"/><path d="M191.20121,167.81936c0,1.50652 -0.42479,2.7278 -0.9488,2.7278c-0.52401,0 -0.9488,-1.22128 -0.9488,-2.7278c0,-1.50652 0.42479,-2.7278 0.9488,-2.7278c0.52401,0 0.9488,1.22128 0.9488,2.7278z" fill="#ff0000" stroke="none" stroke-width="0"/><path d="M190.96401,179.20496c0,0.72051 -0.2124,1.3046 -0.4744,1.3046c-0.262,0 -0.4744,-0.58409 -0.4744,-1.3046c0,-0.72051 0.2124,-1.3046 0.4744,-1.3046c0.262,0 0.4744,0.58409 0.4744,1.3046z" fill="#ff0000" stroke="none" stroke-width="0"/><path d="M190.47624,173.08185c0,0.37056 -0.13655,0.67097 -0.30498,0.67097c-0.16844,0 -0.30498,-0.3004 -0.30498,-0.67097c0,-0.37056 0.13655,-0.67097 0.30498,-0.67097c0.16844,0 0.30498,0.3004 0.30498,0.67097z" fill="#ff0000" stroke="none" stroke-width="0"/><path d="M190.72023,183.69532c0,0.84219 -0.16386,1.52492 -0.36598,1.52492c-0.20213,0 -0.36598,-0.68273 -0.36598,-1.52492c0,-0.84219 0.16386,-1.52492 0.36598,-1.52492c0.20213,0 0.36598,0.68273 0.36598,1.52492z" fill="#ff0000" stroke="none" stroke-width="0"/><path d="M193.64808,191.13694c0,0.50532 -1.4747,0.91495 -3.29383,0.91495c-1.81913,0 -3.29383,-0.40964 -3.29383,-0.91495c0,-0.50532 1.4747,-0.91495 3.29383,-0.91495c1.81913,0 3.29383,0.40964 3.29383,0.91495z" fill="#ff0000" stroke="none" stroke-width="0"/></g></g></svg>