<svg version="1.1" xmlns="http://www.w3.org/2000/svg" xmlns:xlink="http://www.w3.org/1999/xlink" width="267.02363" height="47.02781" viewBox="0,0,267.02363,47.02781"><g transform="translate(-106.48819,-156.4861)"><g stroke="none" stroke-width="0" stroke-miterlimit="10"><path d="M113.47258,178.08101l228.99889,-0.71339l0.05919,18.99991l-228.99889,0.71339z" fill="#6d0000"></path><path d="M301.40624,156.49544l2.99999,-0.00935l0.12461,39.99981l-2.99999,0.00935z" fill="#bc0000"></path><path d="M305.44672,169.48292l15.99992,-0.04984l0.03427,10.99995l-15.99992,0.04984z" fill="#bc0000"></path><path d="M205.44098,167.79445l42.99979,-0.13396l0.1028,32.99984l-42.99979,0.13396z" fill="#bc0000"></path><path d="M106.48819,183.10279l125.99939,-0.39252l0.0623,19.9999l-125.99939,0.39252z" fill="#bc0000"></path><path d="M327.44039,167.41439l16.99992,-0.05296l0.04673,14.99993l-16.99992,0.05296z" fill="#1e7352"></path><path d="M327.50581,188.41429l25.99987,-0.081l0.03115,9.99995l-25.99987,0.081z" fill="#1e7352"></path><path d="M322.44041,167.42997l40.9998,-0.12773l0.04984,15.99992l-40.9998,0.12773z" fill="#1e7352"></path><path d="M214.49389,184.76633l158.99923,-0.49532l0.01869,5.99997l-158.99923,0.49532z" fill="#1e7352"></path><path d="M295.44677,169.51407l1,-0.00312l0.10592,33.99984l-1,0.00312z" fill="#1e7352"></path><path d="M226.41907,160.72907l46.99977,-0.14642l0.12149,38.99981l-46.99977,0.14642z" fill="#1e7352"></path><path d="M136.48493,182.00934l44.99978,-0.14019l0.0623,19.9999l-44.99978,0.14019z" fill="#1e7352"></path></g></g></svg>